<!-- Generated by IcoMoon.io -->
<svg version="1.1" xmlns="http://www.w3.org/2000/svg" width="1280" height="1024" viewBox="0 0 1280 1024">
<title></title>
<g id="icomoon-ignore">
</g>
<path d="M676.922 240.91l36.928-35.438c43.226-41.479 101.613-66.805 166.144-66.805 132.55 0 240 107.452 240 240 0 127.073-68.787 232.003-168.090 318.216-99.392 86.285-218.227 143.514-289.222 172.723-14.848 6.106-30.527 6.106-45.372 0-71-29.21-189.831-86.438-289.221-172.723-99.305-86.214-168.093-191.143-168.093-318.216 0-132.548 107.452-240 240-240 64.53 0 122.921 25.326 166.144 66.805l36.928 35.438c20.636 19.804 53.221 19.804 73.855 0zM639.995 128.511c-62.288-59.775-146.854-96.511-240-96.511-191.459 0-346.667 155.208-346.667 346.667 0 339.637 371.752 527.202 523.402 589.583 40.842 16.8 85.689 16.8 126.527 0 151.654-62.381 523.405-249.946 523.405-589.583 0-191.459-155.206-346.667-346.669-346.667-93.146 0-177.709 36.736-239.999 96.511z"></path>
</svg>
